<svg xmlns="http://www.w3.org/2000/svg" version="1.1" xmlns:xlink="http://www.w3.org/1999/xlink" xmlns:svgjs="http://svgjs.dev/svgjs" width="1000" height="623" viewBox="0 0 1000 623"><g transform="matrix(1,0,0,1,-0.6060606060606233,0.2522267206477409)"><svg viewBox="0 0 396 247" data-background-color="#ffffff" preserveAspectRatio="xMidYMid meet" height="623" width="1000" xmlns="http://www.w3.org/2000/svg" xmlns:xlink="http://www.w3.org/1999/xlink"><g id="tight-bounds" transform="matrix(1,0,0,1,0.2400000000000091,-0.09999999999999432)"><svg viewBox="0 0 395.52 247.2" height="247.2" width="395.52"><g><svg></svg></g><g><svg viewBox="0 0 395.52 247.2" height="247.2" width="395.52"><g transform="matrix(1,0,0,1,75.54432,94.08203018750419)"><svg viewBox="0 0 244.43135999999998 59.03593962499162" height="59.03593962499162" width="244.43135999999998"><g><svg viewBox="0 0 244.43135999999998 59.03593962499162" height="59.03593962499162" width="244.43135999999998"><g><svg viewBox="0 0 244.43135999999998 59.03593962499162" height="59.03593962499162" width="244.43135999999998"><g><svg viewBox="0 0 244.43135999999998 59.03593962499162" height="59.03593962499162" width="244.43135999999998"><g id="textblocktransform"><svg viewBox="0 0 244.43135999999998 59.03593962499162" height="59.03593962499162" width="244.43135999999998" id="textblock"><g><svg viewBox="0 0 244.43135999999998 59.03593962499162" height="59.03593962499162" width="244.43135999999998"><g transform="matrix(1,0,0,1,0,0)"><svg width="244.43135999999998" viewBox="3.9488237861130004 -31.61 132.761176213887 32.07" height="59.03593962499162" data-palette-color="#a437db"><path d="M13.45 0L5.86 0Q4.66 0 4.02-1.15L4.02-1.15Q3.91-1.49 3.97-1.9L3.97-1.9 3.97-29.43Q3.97-30.57 5.06-31.21L5.06-31.21Q5.4-31.38 5.86-31.38L5.86-31.38 13.33-31.38Q25.69-31.38 29.08-22.41L29.08-22.41Q30.17-19.48 30.11-15.63L30.11-15.63Q30.11-7.93 25.75-3.97L25.75-3.97Q21.38 0 13.45 0L13.45 0ZM7.82-28.28L7.82-2.99 13.91-2.99Q23.1-2.99 25.29-10.46L25.29-10.46Q25.98-12.76 25.98-15.8 25.98-18.85 25.06-21.26 24.14-23.68 22.41-25.29L22.41-25.29Q19.14-28.28 12.76-28.28L12.76-28.28 7.82-28.28ZM37.35-1.9L37.35-29.48Q37.35-30.69 38.5-31.21L38.5-31.21Q38.85-31.26 39.48-31.32 40.11-31.38 40.66-30.92 41.2-30.46 41.2-29.48L41.2-29.48 41.2-1.9Q41.2-0.52 40-0.11L40-0.11Q39.65 0 39.08 0 38.5 0 37.93-0.46 37.35-0.92 37.35-1.9L37.35-1.9ZM64.54-27.93L75.11-2.41Q75.17-2.07 75.17-1.72 75.17-1.38 75-1.03 74.82-0.69 74.54-0.52L74.54-0.52Q73.96 0 73.27 0L73.27 0Q71.89 0 71.43-1.21L71.43-1.21 68.62-8.16 53.1-8.16 50.34-1.21Q49.94 0 48.73 0 47.52 0 46.89-1.03L46.89-1.03Q46.72-1.38 46.72-1.67 46.72-1.95 46.89-2.41L46.89-2.41 57.29-27.93Q58.44-30.8 59.94-31.21L59.94-31.21Q60.34-31.26 60.97-31.38L60.97-31.38Q62.12-31.38 62.7-30.86L62.7-30.86Q63.62-30.17 64.54-27.93L64.54-27.93ZM60.86-28.1L54.19-11.21 67.58-11.21 60.86-28.1ZM84.59-16.09L84.59-1.84Q84.59-0.92 84.13-0.57L84.13-0.57Q83.44 0 82.58 0L82.58 0Q81.37 0 80.91-1.03L80.91-1.03Q80.8-1.38 80.8-1.84L80.8-1.84 80.8-29.48Q80.8-30.46 81.37-30.92 81.95-31.38 82.46-31.38 82.98-31.38 83.33-31.26 83.67-31.15 83.96-30.86L83.96-30.86Q84.59-30.34 84.59-29.48L84.59-29.48 84.59-17.47 97.81-30.69Q98.44-31.38 99.16-31.38 99.88-31.38 100.39-30.92 100.91-30.46 100.91-29.8 100.91-29.14 100.57-28.62L100.57-28.62 88.73-17.13 101.72-2.99Q102.87-1.55 101.6-0.52L101.6-0.52Q100.91 0 100.22 0L100.22 0Q99.3 0 98.79-0.8L98.79-0.8 84.59-16.09ZM112.09-20.2Q111.54-17.82 111.54-15.55 111.54-13.28 112.09-10.86 112.63-8.45 113.96-6.64 115.28-4.83 117.23-3.74 119.19-2.64 122-2.64 124.82-2.64 126.83-3.74 128.84-4.83 130.1-6.64 131.37-8.45 131.97-10.86 132.58-13.28 132.58-15.55 132.58-17.82 131.97-20.2 131.37-22.59 130.1-24.4 128.84-26.21 126.83-27.3 124.82-28.39 122-28.39 119.19-28.39 117.23-27.3 115.28-26.21 113.96-24.4 112.63-22.59 112.09-20.2ZM107.23-15.63L107.23-15.63Q107.23-18.97 108.21-21.95 109.19-24.94 111.14-27.07L111.14-27.07Q115.05-31.55 121.94-31.61L121.94-31.61Q128.96-31.61 132.92-27.07L132.92-27.07Q134.82-24.94 135.77-21.95 136.71-18.97 136.71-15.63L136.71-15.63Q136.71-12.24 135.77-9.17 134.82-6.09 132.92-4.02L132.92-4.02Q128.96 0.46 121.94 0.46L121.94 0.46Q114.99 0.46 111.14-4.02L111.14-4.02Q109.19-6.21 108.21-9.22 107.23-12.24 107.23-15.63Z" opacity="1" transform="matrix(1,0,0,1,0,0)" fill="var(--primary-color)" class="wordmark-text-0" data-fill-palette-color="primary" id="text-0"></path></svg></g></svg></g></svg></g></svg></g></svg></g></svg></g></svg></g><path d="M197.655 88.082L197.655 29.186 386.484 29.186 386.484 218.014 197.655 218.014 197.655 159.118 202.979 159.118 202.979 212.691 381.16 212.691 381.16 34.509 202.979 34.509 202.979 88.082Z" fill="#a437db" stroke="transparent" data-fill-palette-color="primary"></path></svg></g><defs></defs></svg><rect width="395.52" height="247.2" fill="none" stroke="none" visibility="hidden"></rect></g></svg></g></svg>